<?xml version="1.0" standalone="no"?>
<!DOCTYPE svg PUBLIC "-//W3C//DTD SVG 1.1//EN" "http://www.w3.org/Graphics/SVG/1.1/DTD/svg11.dtd" >
<svg xmlns="http://www.w3.org/2000/svg" xmlns:xlink="http://www.w3.org/1999/xlink" version="1.1">
<metadata>
Created by FontForge 20170731 at Thu Jan  4 02:17:28 2018
 By Aleksey,,,
Copyright mattwalkden 2017
</metadata>
<defs>
<font id="Jamma-8x8" horiz-adv-x="4096" >
  <font-face 
    font-family="Jamma 8x8"
    font-weight="400"
    font-stretch="normal"
    units-per-em="4096"
    panose-1="0 0 4 0 0 0 0 0 0 0"
    ascent="4096"
    descent="0"
    x-height="3072"
    cap-height="4096"
    bbox="0 0 4096 4096"
    underline-thickness="204"
    underline-position="103"
    unicode-range="U+0020-FB02"
  />
<missing-glyph horiz-adv-x="0" 
d="M2048 581v651h-652v-651h652zM2699 1343v651h-1303v-651h1303zM2048 2101v651h-652v-651h652zM2699 2863v647h-651q-271 0 -459 -189q-193 -192 -193 -458h1303zM0 0v4096h4096v-4096h-4096z" />
    <glyph glyph-name=".notdef" horiz-adv-x="0" 
d="M2048 581v651h-652v-651h652zM2699 1343v651h-1303v-651h1303zM2048 2101v651h-652v-651h652zM2699 2863v647h-651q-271 0 -459 -189q-193 -192 -193 -458h1303zM0 0v4096h4096v-4096h-4096z" />
    <glyph glyph-name="glyph1" horiz-adv-x="0" 
 />
    <glyph glyph-name="glyph2" horiz-adv-x="1536" 
 />
    <glyph glyph-name="space" unicode=" " 
 />
    <glyph glyph-name="exclam" unicode="!" horiz-adv-x="3072" 
d="M512 512v1024h1024v-1024h-1024zM1024 2048v2048h1536v-1024h-512v-512h-512v-512h-512z" />
    <glyph glyph-name="quotedbl" unicode="&#x22;" horiz-adv-x="3584" 
d="M1024 2560v512h-512v1024h1024v-1536h-512zM2560 2560v512h-512v1024h1024v-1536h-512z" />
    <glyph glyph-name="numbersign" unicode="#" 
d="M2048 2048v1024h-512v-1024h512zM0 1024v1024h512v1024h-512v512h1024v512h1024v-512h512v512h1024v-1024h-512v-1024h512v-512h-1024v-512h-1024v512h-512v-512h-1024z" />
    <glyph glyph-name="dollar" unicode="$" 
d="M2560 1536v512h-512v-512h512zM1536 2560v512h-512v-512h512zM1024 512v512h-1024v512h1536v512h-1024v512h-512v512h512v512h1536v512h512v-512h1024v-512h-1536v-512h1024v-512h512v-512h-512v-512h-1536v-512h-512z" />
    <glyph glyph-name="percent" unicode="%" horiz-adv-x="3584" 
d="M2048 512v1024h1024v-1024h-1024zM512 2560v1024h1024v-1024h-1024zM512 512v1024h512v512h512v512h512v512h512v512h512v-1024h-512v-512h-512v-512h-512v-512h-512v-512h-512z" />
    <glyph glyph-name="ampersand" unicode="&#x26;" 
d="M3072 1536v512h512v-512h-512zM2560 3072v512h512v-512h-512zM512 512v512h-512v1024h512v512h512v512h-512v512h512v512h1536v-512h-1024v-512h1024v-512h-512v-512h512v-512h512v-512h512v-512h-1024v512h-512v512h-512v512h-512v-1024h1024v-512h-1536z" />
    <glyph glyph-name="quotesingle" unicode="'" horiz-adv-x="2048" 
d="M1024 2560v512h-512v1024h1024v-1536h-512z" />
    <glyph glyph-name="parenleft" unicode="(" 
d="M2048 512v512h-512v2560h512v512h1024v-512h-512v-2560h512v-512h-1024z" />
    <glyph glyph-name="parenright" unicode=")" 
d="M1536 512v512h512v2560h-512v512h1024v-512h512v-2560h-512v-512h-1024z" />
    <glyph glyph-name="asterisk" unicode="*" 
d="M512 1024v512h512v512h-1024v512h1024v512h-512v512h1024v-512h512v512h1024v-512h-512v-512h1024v-512h-1024v-512h512v-512h-1024v512h-512v-512h-1024z" />
    <glyph glyph-name="plus" unicode="+" horiz-adv-x="3584" 
d="M1536 512v1024h-1024v512h1024v1024h512v-1024h1024v-512h-1024v-1024h-512z" />
    <glyph glyph-name="comma" unicode="," horiz-adv-x="2048" 
d="M1024 0v512h-512v1024h1024v-1536h-512z" />
    <glyph glyph-name="hyphen" unicode="-" horiz-adv-x="3584" 
d="M512 1536v512h2560v-512h-2560z" />
    <glyph glyph-name="period" unicode="." horiz-adv-x="2048" 
d="M512 512v1024h1024v-1024h-1024z" />
    <glyph glyph-name="slash" unicode="/" 
d="M512 512v1024h512v512h512v512h512v512h512v512h512v512h512v-1024h-512v-512h-512v-512h-512v-512h-512v-512h-512v-512h-512z" />
    <glyph glyph-name="zero" unicode="0" 
d="M1536 2048v512h512v-512h-512zM1024 512v512h-512v512h-512v1536h512v512h512v-2048h512v-512h1024v-512h-1536zM2560 1024v2048h-512v512h-1024v512h1536v-512h512v-512h512v-1536h-512v-512h-512z" />
    <glyph glyph-name="one" unicode="1" horiz-adv-x="3584" 
d="M0 512v512h1024v2048h-512v512h512v512h1024v-3072h1024v-512h-3072z" />
    <glyph glyph-name="two" unicode="2" 
d="M0 512v1024h512v512h512v512h1024v512h512v512h-1536v-512h-1024v512h512v512h2560v-512h512v-1024h-512v-512h-1024v-512h-512v-512h2048v-512h-3584z" />
    <glyph glyph-name="three" unicode="3" 
d="M512 512v512h-512v512h1024v-512h1536v1024h-1536v512h512v512h512v512h-2048v512h3584v-512h-512v-512h-512v-512h512v-512h512v-1024h-512v-512h-2560z" />
    <glyph glyph-name="four" unicode="4" 
d="M2048 2048v1024h-512v-512h-512v-512h1024zM2048 512v1024h-2048v1024h512v512h512v512h512v512h1536v-2048h512v-512h-512v-1024h-1024z" />
    <glyph glyph-name="five" unicode="5" 
d="M512 512v512h-512v512h1024v-512h1536v1024h-2560v2048h3584v-512h-2560v-1024h2048v-512h512v-1024h-512v-512h-2560z" />
    <glyph glyph-name="six" unicode="6" 
d="M2560 1024v1024h-1536v-1024h1536zM512 512v512h-512v2048h512v512h512v512h2048v-512h-1536v-512h-512v-512h2048v-512h512v-1024h-512v-512h-2560z" />
    <glyph glyph-name="seven" unicode="7" 
d="M1024 512v1536h512v512h512v512h512v512h-2560v512h3584v-1024h-512v-512h-512v-512h-512v-1536h-1024z" />
    <glyph glyph-name="eight" unicode="8" 
d="M2560 1024v512h-512v512h-1024v-1024h1536zM2560 2560v1024h-1536v-512h512v-512h1024zM512 512v512h-512v1024h512v512h-512v1024h512v512h2560v-512h512v-1024h-512v-512h512v-1024h-512v-512h-2560z" />
    <glyph glyph-name="nine" unicode="9" 
d="M2560 2560v1024h-1536v-1024h1536zM1024 512v512h1024v512h512v512h-2048v512h-512v1024h512v512h2560v-512h512v-2048h-512v-512h-512v-512h-1536z" />
    <glyph glyph-name="colon" unicode=":" horiz-adv-x="3072" 
d="M1024 512v1024h1024v-1024h-1024zM1024 2560v1024h1024v-1024h-1024z" />
    <glyph glyph-name="semicolon" unicode=";" horiz-adv-x="3072" 
d="M1536 0v512h-512v1024h1024v-1536h-512zM1024 2560v1024h1024v-1024h-1024z" />
    <glyph glyph-name="less" unicode="&#x3c;" horiz-adv-x="3584" 
d="M2048 512v512h-512v512h-512v512h-512v512h512v512h512v512h512v512h1024v-512h-512v-512h-512v-512h-512v-512h512v-512h512v-512h512v-512h-1024z" />
    <glyph glyph-name="equal" unicode="=" 
d="M0 1024v512h3584v-512h-3584zM0 2560v512h3584v-512h-3584z" />
    <glyph glyph-name="greater" unicode="&#x3e;" horiz-adv-x="3584" 
d="M512 512v512h512v512h512v512h512v512h-512v512h-512v512h-512v512h1024v-512h512v-512h512v-512h512v-512h-512v-512h-512v-512h-512v-512h-1024z" />
    <glyph glyph-name="question" unicode="?" 
d="M1024 512v1024h1024v-1024h-1024zM1536 2048v512h1024v1024h-1536v-512h-1024v512h512v512h2560v-512h512v-1024h-512v-512h-1536z" />
    <glyph glyph-name="at" unicode="@" 
d="M1024 512v512h-512v512h-512v1536h512v512h512v512h2048v-512h512v-2048h-2048v1536h1024v-1024h512v1024h-512v512h-1024v-512h-512v-1536h512v-512h2048v-512h-2560z" />
    <glyph glyph-name="A" unicode="A" 
d="M2560 2048v1536h-512v-512h-512v-512h-512v-512h1536zM0 512v2048h512v512h512v512h512v512h1536v-512h512v-3072h-1024v1024h-1536v-1024h-1024z" />
    <glyph glyph-name="B" unicode="B" 
d="M2560 1024v1024h-1536v-1024h1536zM2560 2560v1024h-1536v-1024h1536zM0 512v3584h3072v-512h512v-1024h-512v-512h512v-1024h-512v-512h-3072z" />
    <glyph glyph-name="C" unicode="C" 
d="M1024 512v512h-512v512h-512v1536h512v512h512v512h2048v-512h512v-512h-1024v512h-1024v-512h-512v-1536h512v-512h1024v512h1024v-512h-512v-512h-2048z" />
    <glyph glyph-name="D" unicode="D" 
d="M2048 1024v512h512v1536h-512v512h-1024v-2560h1024zM0 512v3072h512v512h2048v-512h512v-512h512v-1536h-512v-512h-512v-512h-2560z" />
    <glyph glyph-name="E" unicode="E" 
d="M0 512v3072h512v512h3072v-512h-2560v-1024h1536v-512h-1536v-1024h2560v-512h-3584z" />
    <glyph glyph-name="F" unicode="F" 
d="M0 512v3072h512v512h3072v-512h-2560v-1024h1536v-512h-1536v-1536h-1024z" />
    <glyph glyph-name="G" unicode="G" 
d="M1024 512v512h-512v512h-512v1536h512v512h512v512h2560v-512h-2048v-512h-512v-1536h512v-512h1024v1536h1024v-2048h-2560z" />
    <glyph glyph-name="H" unicode="H" 
d="M0 512v3584h1024v-1536h1536v1536h1024v-3584h-1024v1536h-1536v-1536h-1024z" />
    <glyph glyph-name="I" unicode="I" 
d="M512 512v512h1024v2560h-1024v512h3072v-512h-1024v-2560h1024v-512h-3072z" />
    <glyph glyph-name="J" unicode="J" 
d="M512 512v512h-512v512h1024v-512h1536v3072h1024v-3072h-512v-512h-2560z" />
    <glyph glyph-name="K" unicode="K" 
d="M0 512v3584h1024v-1536h512v512h512v512h512v512h1024v-512h-512v-512h-512v-512h-512v-512h512v-512h512v-512h512v-512h-1024v512h-512v512h-512v512h-512v-1536h-1024z" />
    <glyph glyph-name="L" unicode="L" 
d="M512 512v512h-512v3072h1024v-3072h2560v-512h-3072z" />
    <glyph glyph-name="M" unicode="M" 
d="M0 512v3072h512v512h512v-512h512v-512h512v512h512v512h1024v-3584h-1024v2048h-512v-512h-512v512h-512v-2048h-1024z" />
    <glyph glyph-name="N" unicode="N" 
d="M0 512v3072h512v512h512v-512h512v-512h512v-512h512v1536h1024v-3584h-1024v1024h-512v512h-512v512h-512v-2048h-1024z" />
    <glyph glyph-name="O" unicode="O" 
d="M2560 1024v2560h-1024v-512h-512v-2048h1536zM512 512v512h-512v2048h512v512h512v512h2048v-512h512v-2560h-512v-512h-2560z" />
    <glyph glyph-name="P" unicode="P" 
d="M2560 2048v1536h-1536v-1536h1536zM0 512v3072h512v512h2560v-512h512v-1536h-512v-512h-2048v-1024h-1024z" />
    <glyph glyph-name="Q" unicode="Q" 
d="M2048 1024v512h-512v512h1024v1536h-1024v-512h-512v-2048h1024zM512 512v512h-512v2048h512v512h512v512h2048v-512h512v-2048h-512v-512h512v-512h-3072z" />
    <glyph glyph-name="R" unicode="R" 
d="M2048 2048v512h512v1024h-1536v-1536h1024zM0 512v3072h512v512h2560v-512h512v-1024h-512v-512h-512v-512h512v-512h512v-512h-1024v512h-512v512h-1024v-1024h-1024z" />
    <glyph glyph-name="S" unicode="S" 
d="M512 512v512h-512v512h1024v-512h1536v1024h-2048v512h-512v1024h512v512h2560v-512h512v-512h-1024v512h-1536v-1024h2048v-512h512v-1024h-512v-512h-2560z" />
    <glyph glyph-name="T" unicode="T" 
d="M1536 512v3072h-1024v512h3072v-512h-1024v-3072h-1024z" />
    <glyph glyph-name="U" unicode="U" 
d="M512 512v512h-512v2560h512v512h512v-3072h1536v3072h1024v-3072h-512v-512h-2560z" />
    <glyph glyph-name="V" unicode="V" 
d="M1536 512v512h-512v512h-512v512h-512v1536h512v512h512v-2048h512v-512h512v512h512v2048h1024v-2048h-512v-512h-512v-512h-512v-512h-512z" />
    <glyph glyph-name="W" unicode="W" 
d="M512 512v1024h-512v2048h512v512h512v-2048h512v512h512v-512h512v2048h1024v-2560h-512v-1024h-512v512h-512v512h-512v-512h-512v-512h-512z" />
    <glyph glyph-name="X" unicode="X" 
d="M0 512v1024h512v512h512v512h-512v512h-512v1024h1024v-1024h512v-512h512v512h512v1024h1024v-1024h-512v-512h-512v-512h512v-512h512v-1024h-1024v1024h-512v512h-512v-512h-512v-1024h-1024z" />
    <glyph glyph-name="Y" unicode="Y" 
d="M1536 512v2048h-512v512h-512v1024h1024v-1024h1024v1024h1024v-1024h-512v-512h-512v-2048h-1024z" />
    <glyph glyph-name="Z" unicode="Z" 
d="M0 512v512h512v512h512v512h512v512h512v512h512v512h-2560v512h3584v-1024h-512v-512h-512v-512h-512v-512h-512v-512h2048v-512h-3584z" />
    <glyph glyph-name="bracketleft" unicode="[" 
d="M1024 512v3584h2048v-512h-1024v-2560h1024v-512h-2048z" />
    <glyph glyph-name="backslash" unicode="\" 
d="M3072 512v512h-512v512h-512v512h-512v512h-512v512h-512v1024h512v-512h512v-512h512v-512h512v-512h512v-512h512v-1024h-512z" />
    <glyph glyph-name="bracketright" unicode="]" 
d="M1024 512v512h1024v2560h-1024v512h2048v-3584h-2048z" />
    <glyph glyph-name="asciicircum" unicode="^" horiz-adv-x="3584" 
d="M512 2560v512h512v-512h-512zM2560 2560v512h512v-512h-512zM1024 3072v512h512v-512h-512zM2048 3072v512h512v-512h-512zM1536 3584v512h512v-512h-512z" />
    <glyph glyph-name="underscore" unicode="_" 
d="M0 512v512h3584v-512h-3584z" />
    <glyph glyph-name="grave" unicode="`" horiz-adv-x="3584" 
d="M1536 3072v512h-512v512h1024v-512h512v-512h-1024z" />
    <glyph glyph-name="a" unicode="a" 
d="M2048 1024v1536h-1024v-1536h1024zM512 512v512h-512v1536h512v512h2560v-2048h512v-512h-3072z" />
    <glyph glyph-name="b" unicode="b" 
d="M2560 1024v1536h-1024v-1536h1024zM0 512v512h512v3072h1024v-1024h1536v-512h512v-1536h-512v-512h-3072z" />
    <glyph glyph-name="c" unicode="c" horiz-adv-x="3584" 
d="M512 512v512h-512v1536h512v512h2048v-512h512v-512h-1024v512h-1024v-1536h1024v512h1024v-512h-512v-512h-2048z" />
    <glyph glyph-name="d" unicode="d" 
d="M2048 1024v1536h-1024v-1536h1024zM512 512v512h-512v1536h512v512h1536v1024h1024v-3072h512v-512h-3072z" />
    <glyph glyph-name="e" unicode="e" horiz-adv-x="3584" 
d="M2048 2048v512h-1024v-512h1024zM512 512v512h-512v1536h512v512h2048v-512h512v-1024h-2048v-512h2048v-512h-2560z" />
    <glyph glyph-name="f" unicode="f" horiz-adv-x="3584" 
d="M0 0v512h1024v2048h-512v512h512v512h512v512h1536v-512h-1024v-512h512v-512h-512v-2048h-512v-512h-1536z" />
    <glyph glyph-name="g" unicode="g" 
d="M2048 1536v1024h-1024v-1024h1024zM0 0v512h2048v512h-1536v512h-512v1024h512v512h3072v-512h-512v-2048h-512v-512h-2560z" />
    <glyph glyph-name="h" unicode="h" horiz-adv-x="3584" 
d="M0 512v3584h1024v-1024h1536v-512h512v-2048h-1024v2048h-1024v-2048h-1024z" />
    <glyph glyph-name="i" unicode="i" horiz-adv-x="2560" 
d="M1024 512v512h-512v2048h1024v-2048h512v-512h-1024zM512 3584v512h1024v-512h-1024z" />
    <glyph glyph-name="j" unicode="j" horiz-adv-x="3584" 
d="M512 0v512h1536v2560h1024v-2560h-512v-512h-2048zM2048 3584v512h1024v-512h-1024z" />
    <glyph glyph-name="k" unicode="k" horiz-adv-x="3584" 
d="M0 512v3584h1024v-2048h512v512h512v512h1024v-512h-512v-512h-512v-512h512v-512h512v-512h-1024v512h-512v512h-512v-1024h-1024z" />
    <glyph glyph-name="l" unicode="l" horiz-adv-x="2560" 
d="M1024 512v512h-512v3072h1024v-3072h512v-512h-1024z" />
    <glyph glyph-name="m" unicode="m" 
d="M0 512v2048h512v512h1024v-512h512v512h1024v-512h512v-2048h-1024v1536h-512v-512h-512v512h-512v-1536h-1024z" />
    <glyph glyph-name="n" unicode="n" horiz-adv-x="3584" 
d="M0 512v2560h2560v-512h512v-2048h-1024v2048h-1024v-2048h-1024z" />
    <glyph glyph-name="o" unicode="o" horiz-adv-x="3584" 
d="M2048 1024v1536h-1024v-1536h1024zM512 512v512h-512v1536h512v512h2048v-512h512v-1536h-512v-512h-2048z" />
    <glyph glyph-name="p" unicode="p" 
d="M2560 1536v1024h-1024v-1024h1024zM512 0v2560h-512v512h3072v-512h512v-1024h-512v-512h-1536v-1024h-1024z" />
    <glyph glyph-name="q" unicode="q" 
d="M2048 1536v1024h-1024v-1024h1024zM2560 0v512h-512v512h-1536v512h-512v1024h512v512h3072v-512h-512v-2048h512v-512h-1024z" />
    <glyph glyph-name="r" unicode="r" 
d="M512 512v2048h-512v512h3072v-512h512v-512h-1024v512h-1024v-2048h-1024z" />
    <glyph glyph-name="s" unicode="s" horiz-adv-x="3584" 
d="M0 512v512h2048v512h-1536v512h-512v512h512v512h2560v-512h-2048v-512h1536v-512h512v-512h-512v-512h-2560z" />
    <glyph glyph-name="t" unicode="t" horiz-adv-x="3584" 
d="M512 512v512h-512v3072h1024v-1024h1024v-512h-1024v-1536h1024v512h1024v-512h-512v-512h-2048z" />
    <glyph glyph-name="u" unicode="u" 
d="M512 512v512h-512v2048h1024v-2048h1024v2048h1024v-2048h512v-512h-3072z" />
    <glyph glyph-name="v" unicode="v" horiz-adv-x="3584" 
d="M1024 512v512h-512v512h-512v1536h1024v-1536h1024v1536h1024v-1536h-512v-512h-512v-512h-1024z" />
    <glyph glyph-name="w" unicode="w" 
d="M1536 1024v1024h512v-1024h-512zM512 512v512h-512v2048h1024v-2048h512v-512h-1024zM2048 512v512h512v2048h1024v-2048h-512v-512h-1024z" />
    <glyph glyph-name="x" unicode="x" horiz-adv-x="3584" 
d="M0 512v512h512v512h512v512h-512v512h-512v512h1024v-512h1024v512h1024v-512h-512v-512h-512v-512h512v-512h512v-512h-1024v512h-1024v-512h-1024z" />
    <glyph glyph-name="y" unicode="y" horiz-adv-x="3584" 
d="M0 0v512h2048v512h-1536v512h-512v1536h1024v-1536h1024v1536h1024v-2560h-512v-512h-2560z" />
    <glyph glyph-name="z" unicode="z" horiz-adv-x="3584" 
d="M0 512v512h512v512h512v512h512v512h-1536v512h3072v-512h-512v-512h-512v-512h-512v-512h1536v-512h-3072z" />
    <glyph glyph-name="braceleft" unicode="{" 
d="M2048 512v512h-512v1024h-512v512h512v1024h512v512h1536v-512h-1024v-1024h-512v-512h512v-1024h1024v-512h-1536z" />
    <glyph glyph-name="bar" unicode="|" 
d="M1024 0v4096h1024v-4096h-1024z" />
    <glyph glyph-name="braceright" unicode="}" 
d="M1024 512v512h1024v1024h512v512h-512v1024h-1024v512h1536v-512h512v-1024h512v-512h-512v-1024h-512v-512h-1536z" />
    <glyph glyph-name="asciitilde" unicode="~" 
d="M0 1536v512h512v512h1536v-512h512v512h1024v-512h-512v-512h-1536v512h-512v-512h-1024z" />
    <glyph glyph-name="exclamdown" unicode="&#xa1;" horiz-adv-x="3072" 
d="M512 0v1024h512v512h512v512h512v-2048h-1536zM1536 2560v1024h1024v-1024h-1024z" />
    <glyph glyph-name="cent" unicode="&#xa2;" 
d="M1536 512v512h-512v512h-512v1536h512v512h1024v512h512v-512h512v-512h512v-512h-1024v512h-1024v-1536h1024v512h1024v-512h-512v-512h-1024v-512h-512z" />
    <glyph glyph-name="sterling" unicode="&#xa3;" 
d="M2560 512v512h1024v-512h-1024zM3072 3072v512h512v-512h-512zM512 512v1024h512v512h-512v512h512v1024h512v512h1536v-512h-1024v-1024h1024v-512h-1024v-512h512v-512h-1024v-512h-1024z" />
    <glyph glyph-name="currency" unicode="&#xa4;" 
d="M512 512v512h512v-512h-512zM3072 512v512h512v-512h-512zM2560 1536v1024h-1024v-1024h1024zM1024 1024v2048h2048v-2048h-2048zM512 3072v512h512v-512h-512zM3072 3072v512h512v-512h-512z" />
    <glyph glyph-name="yen" unicode="&#xa5;" horiz-adv-x="4608" 
d="M1536 0v1024h-1024v512h1024v512h-1024v512h1024v512h1024v-512h1024v-512h-1024v-512h1024v-512h-1024v-1024h-1024zM512 3072v512h-512v512h1024v-512h512v-512h-1024zM2560 3072v512h512v512h1024v-512h-512v-512h-1024z" />
    <glyph glyph-name="brokenbar" unicode="&#xa6;" horiz-adv-x="2560" 
d="M1024 0v1536h512v-1536h-512zM1024 2560v1536h512v-1536h-512z" />
    <glyph glyph-name="section" unicode="&#xa7;" horiz-adv-x="3584" 
d="M1024 0v512h1536v-512h-1536zM512 512v512h512v-512h-512zM2560 512v512h512v-512h-512zM1536 1024v512h512v1024h512v-512h512v-512h-512v-512h-1024zM1024 1536v512h-512v512h512v512h1024v-512h-512v-1024h-512zM512 3072v512h512v-512h-512zM2560 3072v512h512v-512
h-512zM1024 3584v512h1536v-512h-1536z" />
    <glyph glyph-name="dieresis" unicode="&#xa8;" horiz-adv-x="3072" 
d="M512 3072v512h512v-512h-512zM2048 3072v512h512v-512h-512z" />
    <glyph glyph-name="copyright" unicode="&#xa9;" 
d="M1024 512v512h1536v-512h-1536zM512 1024v512h512v-512h-512zM2560 1024v512h512v-512h-512zM1536 1536v512h1024v-512h-1024zM1024 2048v512h512v-512h-512zM0 1536v1536h512v-1536h-512zM1536 2560v512h1024v-512h-1024zM3072 1536v1536h512v-1536h-512zM512 3072v512
h512v-512h-512zM2560 3072v512h512v-512h-512zM1024 3584v512h1536v-512h-1536z" />
    <glyph glyph-name="ordfeminine" unicode="&#xaa;" 
d="M512 2560v1024h512v-1024h-512zM1024 2048v512h1024v1024h-1024v512h2048v-1536h512v-512h-2560z" />
    <glyph glyph-name="guillemotleft" unicode="&#xab;" 
d="M1024 1024v512h-512v512h-512v512h512v512h512v512h1024v-512h-512v-512h-512v-512h512v-512h512v-512h-1024zM2560 1024v512h-512v512h-512v512h512v512h512v512h1024v-512h-512v-512h-512v-512h512v-512h512v-512h-1024z" />
    <glyph glyph-name="logicalnot" unicode="&#xac;" 
d="M3072 2048v1024h-2560v512h3072v-1536h-512z" />
    <glyph glyph-name="uni00AD" unicode="&#xad;" 
d="M512 2048v512h3072v-512h-3072z" />
    <glyph glyph-name="registered" unicode="&#xae;" 
d="M1024 512v512h1536v-512h-1536zM512 1024v512h512v-512h-512zM2560 1024v512h512v-512h-512zM2048 1536v512h512v-512h-512zM0 1536v1536h512v-1536h-512zM1024 1536v1536h1024v-1024h-512v-512h-512zM3072 1536v1536h512v-1536h-512zM512 3072v512h512v-512h-512z
M2560 3072v512h512v-512h-512zM1024 3584v512h1536v-512h-1536z" />
    <glyph glyph-name="macron" unicode="&#xaf;" 
d="M512 3584v512h3072v-512h-3072z" />
    <glyph glyph-name="degree" unicode="&#xb0;" horiz-adv-x="3072" 
d="M1024 2048v512h1024v-512h-1024zM512 2560v1024h512v-1024h-512zM2048 2560v1024h512v-1024h-512zM1024 3584v512h1024v-512h-1024z" />
    <glyph glyph-name="plusminus" unicode="&#xb1;" horiz-adv-x="3584" 
d="M512 512v512h2560v-512h-2560zM1536 1536v1024h-1024v512h1024v1024h512v-1024h1024v-512h-1024v-1024h-512z" />
    <glyph glyph-name="uni00B2" unicode="&#xb2;" horiz-adv-x="3072" 
d="M512 2048v512h1024v512h512v-512h512v-512h-2048zM512 3072v512h512v-512h-512zM2048 3072v512h512v-512h-512zM1024 3584v512h1024v-512h-1024z" />
    <glyph glyph-name="uni00B3" unicode="&#xb3;" horiz-adv-x="3072" 
d="M1024 2048v512h1024v-512h-1024zM512 2560v512h512v-512h-512zM2048 2560v512h512v-512h-512zM1536 3072v512h-1024v512h2048v-512h-512v-512h-512z" />
    <glyph glyph-name="acute" unicode="&#xb4;" horiz-adv-x="3072" 
d="M1024 3072v512h512v-512h-512zM1536 3584v512h512v-512h-512z" />
    <glyph glyph-name="mu" unicode="&#xb5;" horiz-adv-x="4608" 
d="M3584 512v512h512v-512h-512zM0 0v512h512v2560h1024v-2048h1024v2048h1024v-2048h-512v-512h-2048v-512h-1024z" />
    <glyph glyph-name="paragraph" unicode="&#xb6;" 
d="M0 2560v1024h512v-1024h-512zM1536 512v1536h-1024v512h1024v1024h-1024v512h3072v-512h-512v-3072h-512v3072h-512v-3072h-512z" />
    <glyph glyph-name="periodcentered" unicode="&#xb7;" horiz-adv-x="3072" 
d="M1024 1536v1024h1024v-1024h-1024z" />
    <glyph glyph-name="cedilla" unicode="&#xb8;" horiz-adv-x="2560" 
d="M512 0v512h512v512h512v-1024h-1024z" />
    <glyph glyph-name="uni00B9" unicode="&#xb9;" horiz-adv-x="2560" 
d="M1024 2048v1024h-512v512h512v512h512v-2048h-512z" />
    <glyph glyph-name="ordmasculine" unicode="&#xba;" horiz-adv-x="3584" 
d="M512 2560v1024h512v-1024h-512zM1024 2048v512h1024v1024h-1024v512h1536v-512h512v-1024h-512v-512h-1536z" />
    <glyph glyph-name="guillemotright" unicode="&#xbb;" 
d="M0 1024v512h512v512h512v512h-512v512h-512v512h1024v-512h512v-512h512v-512h-512v-512h-512v-512h-1024zM1536 1024v512h512v512h512v512h-512v512h-512v512h1024v-512h512v-512h512v-512h-512v-512h-512v-512h-1024z" />
    <glyph glyph-name="onequarter" unicode="&#xbc;" 
d="M512 512v512h512v-512h-512zM1024 1024v512h512v-512h-512zM3072 0v512h-1024v512h512v512h512v-512h512v-1024h-512zM1536 1536v512h512v-512h-512zM3072 1536v512h512v-512h-512zM2048 2048v512h512v-512h-512zM2560 2560v512h512v-512h-512zM3072 3072v512h512v-512
h-512zM1024 2048v1024h-512v512h512v512h512v-2048h-512z" />
    <glyph glyph-name="onehalf" unicode="&#xbd;" 
d="M512 512v512h512v-512h-512zM2048 0v512h512v512h512v-512h512v-512h-1536zM1024 1024v512h512v-512h-512zM2048 1024v512h512v-512h-512zM1536 1536v512h512v-512h-512zM3072 1024v512h-512v512h1024v-1024h-512zM2048 2048v512h512v-512h-512zM2560 2560v512h512v-512
h-512zM3072 3072v512h512v-512h-512zM1024 2048v1024h-512v512h512v512h512v-2048h-512z" />
    <glyph glyph-name="threequarters" unicode="&#xbe;" 
d="M512 512v512h512v-512h-512zM1024 1024v512h512v-512h-512zM3072 0v512h-1024v512h512v512h512v-512h512v-1024h-512zM1536 1536v512h512v-512h-512zM3072 1536v512h512v-512h-512zM0 2048v512h1024v-512h-1024zM2048 2048v512h512v-512h-512zM1024 2560v512h512v-512
h-512zM2560 2560v512h512v-512h-512zM3072 3072v512h512v-512h-512zM512 3072v512h-512v512h1536v-512h-512v-512h-512z" />
    <glyph glyph-name="questiondown" unicode="&#xbf;" 
d="M1024 0v512h-512v1024h512v512h1536v-512h-1024v-1024h1024v512h1024v-512h-512v-512h-2048zM2048 2560v1024h1024v-1024h-1024z" />
    <glyph glyph-name="Agrave" unicode="&#xc0;" 
d="M2560 1536v1024h-1024v-512h-512v-512h1536zM0 0v2048h512v512h512v512h512v512h512v-512h1024v-512h512v-2560h-1024v1024h-1536v-1024h-1024zM1024 3584v512h512v-512h-512z" />
    <glyph glyph-name="Aacute" unicode="&#xc1;" 
d="M2560 1536v1024h-1024v-512h-512v-512h1536zM0 0v2048h512v512h512v512h512v512h512v-512h1024v-512h512v-2560h-1024v1024h-1536v-1024h-1024zM2048 3584v512h512v-512h-512z" />
    <glyph glyph-name="Acircumflex" unicode="&#xc2;" 
d="M2560 1024v1024h-1024v-512h-512v-512h1536zM0 0v1536h512v512h512v512h2048v-512h512v-2048h-1024v512h-1536v-512h-1024zM1024 3072v512h512v-512h-512zM2560 3072v512h512v-512h-512zM1536 3584v512h1024v-512h-1024z" />
    <glyph glyph-name="Atilde" unicode="&#xc3;" 
d="M2560 1024v1024h-1024v-512h-512v-512h1536zM0 0v1536h512v512h512v512h2048v-512h512v-2048h-1024v512h-1536v-512h-1024zM0 3072v512h512v512h1536v-512h512v512h1024v-512h-512v-512h-1536v512h-512v-512h-1024z" />
    <glyph glyph-name="Adieresis" unicode="&#xc4;" 
d="M2560 1536v1024h-1024v-512h-512v-512h1536zM0 0v2048h512v512h512v512h2048v-512h512v-2560h-1024v1024h-1536v-1024h-1024zM512 3584v512h512v-512h-512zM2560 3584v512h512v-512h-512z" />
    <glyph glyph-name="Aring" unicode="&#xc5;" 
d="M2560 1024v1024h-1024v-512h-512v-512h1536zM0 0v1536h512v512h512v512h512v512h1024v-512h512v-512h512v-2048h-1024v512h-1536v-512h-1024zM1024 3072v512h512v-512h-512zM2560 3072v512h512v-512h-512zM1536 3584v512h1024v-512h-1024z" />
    <glyph glyph-name="AE" unicode="&#xc6;" horiz-adv-x="4608" 
d="M0 512v2048h512v1024h512v512h1024v-512h-512v-512h-512v-1024h1024v1536h512v512h1536v-512h-1024v-1024h1024v-512h-1024v-1024h1024v-512h-2048v1024h-1024v-1024h-1024z" />
    <glyph glyph-name="Ccedilla" unicode="&#xc7;" 
d="M1024 0v512h512v512h-1024v512h-512v2048h512v512h2560v-512h512v-512h-1024v512h-1536v-2048h1536v512h1024v-512h-512v-512h-1024v-1024h-1024z" />
    <glyph glyph-name="Egrave" unicode="&#xc8;" 
d="M0 0v2560h512v512h1024v512h512v-512h1536v-512h-2560v-512h1536v-512h-1536v-1024h2560v-512h-3584zM1024 3584v512h512v-512h-512z" />
    <glyph glyph-name="Eacute" unicode="&#xc9;" 
d="M0 0v2560h512v512h1024v512h512v-512h1536v-512h-2560v-512h1536v-512h-1536v-1024h2560v-512h-3584zM2048 3584v512h512v-512h-512z" />
    <glyph glyph-name="Ecircumflex" unicode="&#xca;" 
d="M0 0v2048h512v512h3072v-512h-2560v-512h1536v-512h-1536v-512h2560v-512h-3584zM1024 3072v512h512v-512h-512zM2560 3072v512h512v-512h-512zM1536 3584v512h1024v-512h-1024z" />
    <glyph glyph-name="Edieresis" unicode="&#xcb;" 
d="M0 0v2560h512v512h3072v-512h-2560v-512h1536v-512h-1536v-1024h2560v-512h-3584zM512 3584v512h512v-512h-512zM2560 3584v512h512v-512h-512z" />
    <glyph glyph-name="Igrave" unicode="&#xcc;" 
d="M512 0v512h1024v2048h-1024v512h1536v512h512v-512h1024v-512h-1024v-2048h1024v-512h-3072zM1536 3584v512h512v-512h-512z" />
    <glyph glyph-name="Iacute" unicode="&#xcd;" 
d="M512 0v512h1024v2048h-1024v512h1024v512h512v-512h1536v-512h-1024v-2048h1024v-512h-3072zM2048 3584v512h512v-512h-512z" />
    <glyph glyph-name="Icircumflex" unicode="&#xce;" 
d="M512 0v512h1024v1536h-1024v512h3072v-512h-1024v-1536h1024v-512h-3072zM1024 3072v512h512v-512h-512zM2560 3072v512h512v-512h-512zM1536 3584v512h1024v-512h-1024z" />
    <glyph glyph-name="Idieresis" unicode="&#xcf;" 
d="M512 0v512h1024v2048h-1024v512h3072v-512h-1024v-2048h1024v-512h-3072zM1024 3584v512h512v-512h-512zM3072 3584v512h512v-512h-512z" />
    <glyph glyph-name="Eth" unicode="&#xd0;" 
d="M2560 1024v512h512v1536h-512v512h-1024v-1024h512v-512h-512v-1024h1024zM512 512v1536h-512v512h512v1024h512v512h2048v-512h512v-512h512v-1536h-512v-512h-512v-512h-2560z" />
    <glyph glyph-name="Ntilde" unicode="&#xd1;" 
d="M0 0v2560h1536v-512h512v-512h512v1024h1024v-2560h-1024v512h-512v512h-512v512h-512v-1536h-1024zM0 3072v512h512v512h1536v-512h512v512h1024v-512h-512v-512h-1536v512h-512v-512h-1024z" />
    <glyph glyph-name="Ograve" unicode="&#xd2;" 
d="M512 0v512h-512v1536h512v512h512v512h512v512h512v-512h512v-512h-1024v-512h-512v-1536h1536v2048h512v-512h512v-1536h-512v-512h-2560zM1024 3584v512h512v-512h-512z" />
    <glyph glyph-name="Oacute" unicode="&#xd3;" 
d="M512 0v512h-512v1536h512v512h512v512h512v512h512v-512h512v-512h-1024v-512h-512v-1536h1536v2048h512v-512h512v-1536h-512v-512h-2560zM2048 3584v512h512v-512h-512z" />
    <glyph glyph-name="Ocircumflex" unicode="&#xd4;" 
d="M512 0v512h-512v1024h512v512h512v512h1536v-512h-1024v-512h-512v-1024h1536v1536h512v-512h512v-1024h-512v-512h-2560zM1024 3072v512h512v-512h-512zM2560 3072v512h512v-512h-512zM1536 3584v512h1024v-512h-1024z" />
    <glyph glyph-name="Otilde" unicode="&#xd5;" 
d="M512 0v512h-512v1024h512v512h512v512h1536v-512h-1024v-512h-512v-1024h1536v1536h512v-512h512v-1024h-512v-512h-2560zM0 3072v512h512v512h1536v-512h512v512h1024v-512h-512v-512h-1536v512h-512v-512h-1024z" />
    <glyph glyph-name="Odieresis" unicode="&#xd6;" 
d="M512 0v512h-512v1536h512v512h512v512h1536v-512h-1024v-512h-512v-1536h1536v2048h512v-512h512v-1536h-512v-512h-2560zM512 3584v512h512v-512h-512zM2560 3584v512h512v-512h-512z" />
    <glyph glyph-name="multiply" unicode="&#xd7;" horiz-adv-x="3584" 
d="M512 512v512h512v-512h-512zM2560 512v512h512v-512h-512zM1024 1024v512h512v-512h-512zM2048 1024v512h512v-512h-512zM1536 1536v512h512v-512h-512zM1024 2048v512h512v-512h-512zM2048 2048v512h512v-512h-512zM512 2560v512h512v-512h-512zM2560 2560v512h512v-512
h-512z" />
    <glyph glyph-name="Oslash" unicode="&#xd8;" 
d="M0 512v512h512v-512h-512zM1536 2048v512h512v-512h-512zM1024 512v512h1536v1536h-512v512h512v512h512v-512h512v-2048h-512v-512h-2048zM512 1024v512h-512v1536h512v512h512v512h1536v-512h-1024v-512h-512v-1024h512v-512h-512v-512h-512zM3072 3584v512h512v-512
h-512z" />
    <glyph glyph-name="Ugrave" unicode="&#xd9;" 
d="M512 0v512h-512v2048h512v512h512v-2560h1536v2560h1024v-2560h-512v-512h-2560zM1536 3072v512h512v-512h-512zM1024 3584v512h512v-512h-512z" />
    <glyph glyph-name="Uacute" unicode="&#xda;" 
d="M512 0v512h-512v2048h512v512h512v-2560h1536v2560h1024v-2560h-512v-512h-2560zM1536 3072v512h512v-512h-512zM2048 3584v512h512v-512h-512z" />
    <glyph glyph-name="Ucircumflex" unicode="&#xdb;" 
d="M512 0v512h-512v1536h512v512h512v-2048h1536v2048h1024v-2048h-512v-512h-2560zM1024 3072v512h512v-512h-512zM2560 3072v512h512v-512h-512zM1536 3584v512h1024v-512h-1024z" />
    <glyph glyph-name="Udieresis" unicode="&#xdc;" 
d="M512 0v512h-512v2048h512v512h512v-2560h1536v2560h1024v-2560h-512v-512h-2560zM512 3584v512h512v-512h-512zM2560 3584v512h512v-512h-512z" />
    <glyph glyph-name="Yacute" unicode="&#xdd;" 
d="M1536 0v1536h-512v512h-512v1024h1024v-1024h1024v1024h1024v-1024h-512v-512h-512v-1536h-1024zM1536 3072v512h512v-512h-512zM2048 3584v512h512v-512h-512z" />
    <glyph glyph-name="Thorn" unicode="&#xde;" 
d="M2560 1536v512h512v-512h-512zM3072 2048v1024h512v-1024h-512zM1024 512v3584h1024v-512h1024v-512h-1024v-1536h512v-512h-512v-512h-1024z" />
    <glyph glyph-name="germandbls" unicode="&#xdf;" 
d="M2048 512v512h1024v1024h1024v-1024h-512v-512h-1536zM0 0v512h512v3072h512v512h2048v-512h512v-1024h-512v-512h-1024v512h512v1024h-1024v-3072h-512v-512h-1024z" />
    <glyph glyph-name="agrave" unicode="&#xe0;" 
d="M2048 1024v1536h-1024v-1536h1024zM512 512v512h-512v1536h512v512h1024v512h512v-512h1024v-2048h512v-512h-3072zM1024 3584v512h512v-512h-512z" />
    <glyph glyph-name="aacute" unicode="&#xe1;" 
d="M2048 1024v1536h-1024v-1536h1024zM512 512v512h-512v1536h512v512h1024v512h512v-512h1024v-2048h512v-512h-3072zM2048 3584v512h512v-512h-512z" />
    <glyph glyph-name="acircumflex" unicode="&#xe2;" 
d="M2048 1024v1024h-1024v-1024h1024zM512 512v512h-512v1024h512v512h2560v-1536h512v-512h-3072zM512 3072v512h512v-512h-512zM2048 3072v512h512v-512h-512zM1024 3584v512h1024v-512h-1024z" />
    <glyph glyph-name="atilde" unicode="&#xe3;" 
d="M2048 1024v1024h-1024v-1024h1024zM512 512v512h-512v1024h512v512h2560v-1536h512v-512h-3072zM0 3072v512h512v512h1536v-512h512v512h1024v-512h-512v-512h-1536v512h-512v-512h-1024z" />
    <glyph glyph-name="adieresis" unicode="&#xe4;" 
d="M2048 1024v1536h-1024v-1536h1024zM512 512v512h-512v1536h512v512h2560v-2048h512v-512h-3072zM512 3584v512h512v-512h-512zM2560 3584v512h512v-512h-512z" />
    <glyph glyph-name="aring" unicode="&#xe5;" 
d="M2048 1024v1024h-1024v-1024h1024zM512 512v512h-512v1024h512v512h512v512h1024v-512h1024v-1536h512v-512h-3072zM512 3072v512h512v-512h-512zM2048 3072v512h512v-512h-512zM1024 3584v512h1024v-512h-1024z" />
    <glyph glyph-name="ae" unicode="&#xe6;" 
d="M2560 512v512h1536v-512h-1536zM1536 1024v512h-512v-512h512zM512 512v512h-512v1024h1536v512h-1024v512h1536v-512h512v-512h1024v512h512v-1024h-1536v-512h-512v-512h-1536zM2560 2560v512h1024v-512h-1024z" />
    <glyph glyph-name="ccedilla" unicode="&#xe7;" horiz-adv-x="3584" 
d="M1024 0v512h512v512h-1024v512h-512v1536h512v512h2048v-512h512v-512h-1024v512h-1024v-1536h1024v512h1024v-512h-512v-512h-512v-1024h-1024z" />
    <glyph glyph-name="egrave" unicode="&#xe8;" horiz-adv-x="3584" 
d="M2048 2048v512h-1024v-512h1024zM512 512v512h-512v1536h512v512h1024v512h512v-512h512v-512h512v-1024h-2048v-512h2048v-512h-2560zM1024 3584v512h512v-512h-512z" />
    <glyph glyph-name="eacute" unicode="&#xe9;" horiz-adv-x="3584" 
d="M2048 2048v512h-1024v-512h1024zM512 512v512h-512v1536h512v512h512v512h512v-512h1024v-512h512v-1024h-2048v-512h2048v-512h-2560zM1536 3584v512h512v-512h-512z" />
    <glyph glyph-name="ecircumflex" unicode="&#xea;" horiz-adv-x="3584" 
d="M2048 1536v512h-1024v-512h1024zM512 0v512h-512v1536h512v512h2048v-512h512v-1024h-2048v-512h2048v-512h-2560zM512 3072v512h512v-512h-512zM2048 3072v512h512v-512h-512zM1024 3584v512h1024v-512h-1024z" />
    <glyph glyph-name="edieresis" unicode="&#xeb;" horiz-adv-x="3584" 
d="M2048 2048v512h-1024v-512h1024zM512 512v512h-512v1536h512v512h2048v-512h512v-1024h-2048v-512h2048v-512h-2560zM512 3584v512h512v-512h-512zM2048 3584v512h512v-512h-512z" />
    <glyph glyph-name="igrave" unicode="&#xec;" horiz-adv-x="3072" 
d="M1536 512v512h-512v1536h1024v-1536h512v-512h-1024zM1024 3072v512h512v-512h-512zM512 3584v512h512v-512h-512z" />
    <glyph glyph-name="iacute" unicode="&#xed;" horiz-adv-x="3072" 
d="M1536 512v512h-512v1536h1024v-1536h512v-512h-1024zM1536 3072v512h512v-512h-512zM2048 3584v512h512v-512h-512z" />
    <glyph glyph-name="icircumflex" unicode="&#xee;" horiz-adv-x="3072" 
d="M1536 512v512h-512v1536h1024v-1536h512v-512h-1024zM512 3072v512h512v-512h-512zM2048 3072v512h512v-512h-512zM1024 3584v512h1024v-512h-1024z" />
    <glyph glyph-name="idieresis" unicode="&#xef;" horiz-adv-x="3072" 
d="M1536 512v512h-512v2048h1024v-2048h512v-512h-1024zM512 3584v512h512v-512h-512zM2048 3584v512h512v-512h-512z" />
    <glyph glyph-name="eth" unicode="&#xf0;" horiz-adv-x="3584" 
d="M2048 512v1024h-1024v-1024h1024zM512 0v512h-512v1024h512v512h1536v512h512v-1024h512v-1024h-512v-512h-2048zM512 2560v512h512v-512h-512zM1536 2560v512h512v-512h-512zM1024 3072v512h512v-512h-512zM0 3584v512h1024v-512h-1024zM1536 3584v512h512v-512h-512z
" />
    <glyph glyph-name="ntilde" unicode="&#xf1;" 
d="M0 512v2048h2560v-512h512v-1536h-1024v1536h-1024v-1536h-1024zM0 3072v512h512v512h1536v-512h512v512h1024v-512h-512v-512h-1536v512h-512v-512h-1024z" />
    <glyph glyph-name="ograve" unicode="&#xf2;" horiz-adv-x="3584" 
d="M2048 1024v1536h-1024v-1536h1024zM512 512v512h-512v1536h512v512h1024v512h512v-512h512v-512h512v-1536h-512v-512h-2048zM1024 3584v512h512v-512h-512z" />
    <glyph glyph-name="oacute" unicode="&#xf3;" horiz-adv-x="3584" 
d="M2048 1024v1536h-1024v-1536h1024zM512 512v512h-512v1536h512v512h512v512h512v-512h1024v-512h512v-1536h-512v-512h-2048zM1536 3584v512h512v-512h-512z" />
    <glyph glyph-name="ocircumflex" unicode="&#xf4;" horiz-adv-x="3584" 
d="M2048 1024v1024h-1024v-1024h1024zM512 512v512h-512v1024h512v512h2048v-512h512v-1024h-512v-512h-2048zM512 3072v512h512v-512h-512zM2048 3072v512h512v-512h-512zM1024 3584v512h1024v-512h-1024z" />
    <glyph glyph-name="otilde" unicode="&#xf5;" 
d="M2048 1024v1024h-1024v-1024h1024zM512 512v512h-512v1024h512v512h2048v-512h512v-1024h-512v-512h-2048zM0 3072v512h512v512h1536v-512h512v512h1024v-512h-512v-512h-1536v512h-512v-512h-1024z" />
    <glyph glyph-name="odieresis" unicode="&#xf6;" horiz-adv-x="3584" 
d="M2048 1024v1536h-1024v-1536h1024zM512 512v512h-512v1536h512v512h2048v-512h512v-1536h-512v-512h-2048zM512 3584v512h512v-512h-512zM2048 3584v512h512v-512h-512z" />
    <glyph glyph-name="divide" unicode="&#xf7;" horiz-adv-x="3584" 
d="M1536 1024v512h512v-512h-512zM512 2048v512h2560v-512h-2560zM1536 3072v512h512v-512h-512z" />
    <glyph glyph-name="oslash" unicode="&#xf8;" horiz-adv-x="3584" 
d="M0 512v512h512v-512h-512zM1024 512v512h1024v1024h-512v512h-512v-512h512v-512h-512v-512h-512v512h-512v1024h512v512h1536v-512h512v-512h512v-1024h-512v-512h-1536zM2560 2560v512h512v-512h-512z" />
    <glyph glyph-name="ugrave" unicode="&#xf9;" 
d="M512 512v512h-512v2048h1024v-2048h1024v2048h1024v-2048h512v-512h-3072zM1536 3072v512h512v-512h-512zM1024 3584v512h512v-512h-512z" />
    <glyph glyph-name="uacute" unicode="&#xfa;" 
d="M512 512v512h-512v2048h1024v-2048h1024v2048h1024v-2048h512v-512h-3072zM1024 3072v512h512v-512h-512zM1536 3584v512h512v-512h-512z" />
    <glyph glyph-name="ucircumflex" unicode="&#xfb;" 
d="M512 512v512h-512v1536h1024v-1536h1024v1536h1024v-1536h512v-512h-3072zM512 3072v512h512v-512h-512zM2048 3072v512h512v-512h-512zM1024 3584v512h1024v-512h-1024z" />
    <glyph glyph-name="udieresis" unicode="&#xfc;" 
d="M512 512v512h-512v2048h1024v-2048h1024v2048h1024v-2048h512v-512h-3072zM512 3584v512h512v-512h-512zM2048 3584v512h512v-512h-512z" />
    <glyph glyph-name="yacute" unicode="&#xfd;" horiz-adv-x="3584" 
d="M0 0v512h2048v512h-1536v512h-512v1536h1024v-1536h1024v1536h1024v-2560h-512v-512h-2560zM1024 3072v512h512v-512h-512zM1536 3584v512h512v-512h-512z" />
    <glyph glyph-name="thorn" unicode="&#xfe;" horiz-adv-x="3584" 
d="M2560 1536v1024h512v-1024h-512zM512 512v3072h1024v-512h1024v-512h-1024v-1024h1024v-512h-1024v-512h-1024z" />
    <glyph glyph-name="ydieresis" unicode="&#xff;" horiz-adv-x="3584" 
d="M0 0v512h2048v512h-1536v512h-512v1536h1024v-1536h1024v1536h1024v-2560h-512v-512h-2560zM512 3584v512h512v-512h-512zM2048 3584v512h512v-512h-512z" />
    <glyph glyph-name="Ydieresis" unicode="&#x178;" 
d="M1536 0v1536h-512v512h-512v1024h1024v-1024h1024v1024h1024v-1024h-512v-512h-512v-1536h-1024zM1024 3584v512h512v-512h-512zM3072 3584v512h512v-512h-512z" />
    <glyph glyph-name="uni1E9E" unicode="&#x1e9e;" horiz-adv-x="4608" 
d="M1536 0v512h1536v1536h1024v-1536h-512v-512h-2048zM2048 2048v512h1024v-512h-1024zM0 0v512h512v3072h512v512h2560v-512h512v-1024h-1024v1024h-1536v-3072h-512v-512h-1024z" />
    <glyph glyph-name="emdash" unicode="&#x2014;" 
d="M0 2048v512h3584v-512h-3584z" />
    <glyph glyph-name="quoteleft" unicode="&#x2018;" horiz-adv-x="2560" 
d="M1024 2560v1024h512v512h512v-1536h-1024z" />
    <glyph glyph-name="quoteright" unicode="&#x2019;" horiz-adv-x="2560" 
d="M1536 2560v512h-512v1024h1024v-1536h-512z" />
    <glyph glyph-name="quotesinglbase" unicode="&#x201a;" horiz-adv-x="2560" 
d="M1536 512v512h-512v1024h1024v-1536h-512z" />
    <glyph glyph-name="quotereversed" unicode="&#x201b;" horiz-adv-x="2560" 
d="M1024 2560v1536h1024v-1024h-512v-512h-512z" />
    <glyph glyph-name="quotedblleft" unicode="&#x201c;" 
d="M1024 2560v1024h512v512h512v-1536h-1024zM2560 2560v1024h512v512h512v-1536h-1024z" />
    <glyph glyph-name="quotedblright" unicode="&#x201d;" horiz-adv-x="3584" 
d="M1024 2560v512h-512v1024h1024v-1536h-512zM2560 2560v512h-512v1024h1024v-1536h-512z" />
    <glyph glyph-name="quotedblbase" unicode="&#x201e;" horiz-adv-x="3584" 
d="M1024 512v512h-512v1024h1024v-1536h-512zM2560 512v512h-512v1024h1024v-1536h-512z" />
    <glyph glyph-name="dagger" unicode="&#x2020;" horiz-adv-x="3072" 
d="M1024 0v2560h-512v512h512v1024h1024v-1024h512v-512h-512v-2560h-1024z" />
    <glyph glyph-name="bullet" unicode="&#x2022;" horiz-adv-x="2560" 
d="M1024 1536v512h-512v512h512v512h512v-512h512v-512h-512v-512h-512z" />
    <glyph glyph-name="ellipsis" unicode="&#x2026;" horiz-adv-x="4608" 
d="M0 512v1024h1024v-1024h-1024zM1536 512v1024h1024v-1024h-1024zM3072 512v1024h1024v-1024h-1024z" />
    <glyph glyph-name="guilsinglleft" unicode="&#x2039;" horiz-adv-x="3072" 
d="M1536 1024v512h-512v512h-512v512h512v512h512v512h1024v-512h-512v-512h-512v-512h512v-512h512v-512h-1024z" />
    <glyph glyph-name="guilsinglright" unicode="&#x203a;" horiz-adv-x="3072" 
d="M512 1024v512h512v512h512v512h-512v512h-512v512h1024v-512h512v-512h512v-512h-512v-512h-512v-512h-1024z" />
    <glyph glyph-name="Euro" unicode="&#x20ac;" horiz-adv-x="4608" 
d="M1024 512v512h-512v512h-512v512h512v512h-512v512h512v512h512v512h2560v-512h512v-512h-1024v512h-1536v-512h1024v-512h-1024v-512h1024v-512h-1024v-512h1536v512h1024v-512h-512v-512h-2560z" />
    <glyph glyph-name="trademark" unicode="&#x2122;" 
d="M512 2560v1024h-512v512h1536v-512h-512v-1024h-512zM2048 2560v1536h1536v-1536h-512v512h-512v-512h-512z" />
    <glyph glyph-name="uniFB01" unicode="&#xfb01;" horiz-adv-x="4608" 
d="M512 0v2560h-512v512h512v512h512v512h1024v-512h-512v-512h2048v-2560h512v-512h-1024v512h-512v2048h-1024v-2560h-1024zM2560 3584v512h1024v-512h-1024z" />
    <glyph glyph-name="uniFB02" unicode="&#xfb02;" horiz-adv-x="4608" 
d="M512 0v2560h-512v512h512v512h512v512h2560v-3584h512v-512h-1024v512h-512v3072h-1024v-512h512v-512h-512v-2560h-1024z" />
  </font>
</defs>
</svg>
