<svg version="1.1" id="Layer_1" xmlns="http://www.w3.org/2000/svg" xmlns:xlink="http://www.w3.org/1999/xlink" x="0px" y="0px"
	 width="100%" viewBox="0 0 300 92" enable-background="new 0 0 300 92" xml:space="preserve">
<path fill="#CAA539" opacity="1.000000" stroke="none" 
	d="
M132.233124,92.690773 
	C89.561653,93.000000 47.123291,92.986664 4.684998,93.034279 
	C2.228510,93.037033 0.847702,93.222061 0.875290,89.694138 
	C1.097816,61.237225 1.094727,32.777081 0.877934,4.320075 
	C0.851377,0.834137 2.175786,0.954305 4.670803,0.960811 
	C29.467960,1.025476 54.265354,1.000000 79.531342,1.000000 
	C82.097984,2.639310 82.273254,4.968393 82.150002,7.328879 
	C80.879593,31.657528 90.844215,51.535370 106.767998,68.943863 
	C112.619949,75.341438 119.814796,80.191757 126.974304,85.032692 
	C129.606705,86.812599 133.196365,88.026596 132.233124,92.690773 
z"/>
<path fill="#D3B358" opacity="1.000000" stroke="none" 
	d="
M229.290176,92.757996 
	C213.979111,93.000000 198.958206,93.000000 183.468658,93.000000 
	C179.892441,90.989716 176.196091,91.837425 172.879257,90.929260 
	C143.585693,82.908501 119.598228,67.720505 105.476273,39.821293 
	C100.694916,30.375301 98.693504,20.057064 98.877251,9.397007 
	C98.926888,6.517334 99.272713,3.742188 101.727188,1.283810 
	C107.354927,1.000000 112.709862,1.000000 118.532394,1.000000 
	C122.026459,4.191713 122.367287,8.287333 121.945183,12.201990 
	C120.904900,21.849638 124.288963,30.267292 128.984894,38.152390 
	C140.281235,57.120430 158.037811,67.435471 178.550812,73.482735 
	C201.781448,80.331169 224.987686,79.493652 247.639786,71.060333 
	C268.926605,63.135300 286.378296,50.521946 295.347534,28.546480 
	C296.209320,26.435034 297.359314,24.191595 300.685577,24.774033 
	C301.000000,35.020893 301.000000,45.041790 301.000000,55.531342 
	C285.731995,74.798683 265.279510,84.860054 242.353226,90.686676 
	C238.182465,91.746658 233.710770,90.993790 229.290176,92.757996 
z"/>
<path fill="#DCC27A" opacity="1.000000" stroke="none" 
	d="
M239.748474,1.272303 
	C249.354233,1.000000 258.708466,1.000000 268.531342,1.000000 
	C273.737122,5.314442 272.491791,10.810452 271.544952,15.956138 
	C268.417419,32.952744 257.651764,44.062286 242.603348,51.122883 
	C223.002213,60.319592 202.600525,61.184090 182.415421,53.583244 
	C165.275299,47.129009 152.274567,35.942650 148.437881,16.877253 
	C147.397354,11.706497 146.632462,6.280313 150.709091,1.299446 
	C160.354233,1.000000 169.708450,1.000000 179.531342,1.000000 
	C181.668259,2.462100 182.175507,4.334466 181.667496,6.414335 
	C179.349503,15.904113 184.438797,22.104998 191.372864,26.993454 
	C203.356567,35.441830 223.896683,33.141682 233.598816,22.681473 
	C237.557007,18.414005 239.342239,13.412851 238.514114,7.623674 
	C238.201767,5.440063 237.745117,3.344931 239.748474,1.272303 
z"/>
<path fill="#CFAE4C" opacity="1.000000" stroke="none" 
	d="
M101.531418,1.000000 
	C99.389908,16.564064 102.544266,31.175179 110.473244,44.519352 
	C121.181580,62.541077 137.072098,74.788933 156.240265,82.886803 
	C163.435440,85.926514 170.849854,88.362671 178.478134,90.120514 
	C180.057983,90.484573 181.801514,90.691566 182.878998,92.666321 
	C166.312439,93.000000 149.624878,93.000000 132.468658,93.000000 
	C131.182083,89.178795 127.644760,88.265846 124.954315,86.498550 
	C103.542198,72.433357 88.113739,53.926239 81.673912,28.649511 
	C79.427811,19.833420 80.099678,10.869171 79.999290,1.468565 
	C87.020950,1.000000 94.041893,1.000000 101.531418,1.000000 
z"/>
<path fill="#D8BC6D" opacity="1.000000" stroke="none" 
	d="
M150.536819,1.000000 
	C150.139267,7.927028 149.578751,14.703012 151.929718,21.634905 
	C156.039825,33.753544 164.396240,42.058640 175.207031,47.743435 
	C196.368057,58.870819 218.263306,59.063019 240.090164,49.721848 
	C255.835510,42.983356 266.508667,31.623144 269.711700,14.205768 
	C270.483521,10.008677 269.626953,5.945901 269.007446,1.424600 
	C273.024536,1.000000 277.049103,1.000000 281.536804,1.000000 
	C285.461639,4.663054 285.312592,9.096277 284.740479,13.644603 
	C282.139496,34.322453 270.124146,48.475163 252.416824,57.668770 
	C226.023926,71.371925 198.594482,71.956764 171.454361,60.057903 
	C152.270386,51.647209 139.275696,37.329990 135.397644,15.979348 
	C134.485611,10.958116 134.627441,6.089295 137.715271,1.297397 
	C142.024551,1.000000 146.049088,1.000000 150.536819,1.000000 
z"/>
<path fill="#D7BA67" opacity="1.000000" stroke="none" 
	d="
M137.550018,1.000000 
	C136.820602,9.512331 137.357590,17.786840 140.471069,25.943165 
	C146.368042,41.391438 157.772324,51.607300 172.319839,57.967793 
	C198.639160,69.475182 225.203888,68.998436 250.891464,55.911480 
	C268.809174,46.783012 280.411743,32.463528 282.832916,11.765254 
	C283.231567,8.357166 281.542389,5.222967 282.000305,1.433809 
	C285.030609,1.000000 288.061188,1.000000 291.545898,1.000000 
	C295.208710,4.536609 295.398529,8.861545 294.791412,13.182420 
	C291.044250,39.851273 275.114655,56.983788 251.167770,67.096275 
	C223.305237,78.862305 195.060974,78.770523 167.252243,66.880180 
	C148.454742,58.842815 134.192719,45.821136 127.789146,25.743954 
	C125.782883,19.453718 124.310616,12.917330 125.806328,6.134989 
	C126.221710,4.251448 126.683731,2.606132 128.696777,1.275759 
	C131.700012,1.000000 134.400024,1.000000 137.550018,1.000000 
z"/>
<path fill="#D5B760" opacity="1.000000" stroke="none" 
	d="
M128.545898,1.000000 
	C125.579689,15.180943 128.882248,28.036556 137.128555,39.679890 
	C153.368805,62.610260 176.844513,71.284698 203.766083,73.009705 
	C221.948654,74.174759 239.309662,70.968910 255.515045,62.673260 
	C276.182098,52.093655 289.687256,35.941254 292.602814,12.254354 
	C293.019165,8.871721 292.230804,5.340804 292.000000,1.439259 
	C301.000000,1.000000 301.000000,1.000000 301.000000,9.757755 
	C301.000000,14.526042 301.000000,19.294329 301.000000,24.531307 
	C299.079010,25.396307 298.401337,26.991724 297.786530,28.522507 
	C287.245636,54.767746 266.059448,68.381042 240.302322,75.815048 
	C213.432159,83.570290 186.850647,81.492157 161.539932,69.533501 
	C140.117996,59.412182 124.346230,43.792725 119.602715,19.598980 
	C118.489571,13.921537 119.711433,7.785984 118.999588,1.440690 
	C122.030594,1.000000 125.061188,1.000000 128.545898,1.000000 
z"/>
<path fill="#E0C989" opacity="1.000000" stroke="none" 
	d="
M239.531342,1.000000 
	C240.033661,1.998807 239.822739,3.083148 240.137634,3.983617 
	C244.988647,17.855476 232.402374,31.006029 218.926865,33.302879 
	C206.750061,35.378372 195.367386,34.546249 185.950638,25.435724 
	C180.074112,19.750280 176.787903,13.216148 179.750748,4.806708 
	C180.070496,3.899161 179.923492,2.827161 179.996490,1.415722 
	C199.687561,1.000000 219.375122,1.000000 239.531342,1.000000 
z"/>
<path fill="#CFAE4C" opacity="1.000000" stroke="none" 
	d="
M229.468658,93.000000 
	C229.888596,90.442825 232.244095,90.433876 234.304611,90.038902 
	C253.631546,86.334099 271.601044,79.513618 287.022278,66.942360 
	C289.968384,64.540695 292.597565,61.749767 295.367798,59.132961 
	C296.802429,57.777760 298.028564,56.097656 300.639374,56.019871 
	C301.000000,67.121658 300.827576,78.247604 301.104126,89.362381 
	C301.188080,92.736816 300.038086,93.076591 297.164948,93.062172 
	C274.756195,92.949753 252.346634,93.000000 229.468658,93.000000 
z"/>
</svg>